<svg width="220" height="61" viewBox="0 0 220 61" fill="none" xmlns="http://www.w3.org/2000/svg">
<path d="M10.656 54V37.2H17.448C18.504 37.2 19.432 37.408 20.232 37.824C21.032 38.24 21.664 38.832 22.128 39.6C22.592 40.352 22.824 41.248 22.824 42.288V42.624C22.824 43.648 22.584 44.544 22.104 45.312C21.64 46.08 21 46.672 20.184 47.088C19.384 47.504 18.472 47.712 17.448 47.712H13.56V54H10.656ZM13.56 45.096H17.16C17.992 45.096 18.656 44.872 19.152 44.424C19.664 43.976 19.92 43.36 19.92 42.576V42.336C19.92 41.552 19.672 40.936 19.176 40.488C18.68 40.04 18.008 39.816 17.16 39.816H13.56V45.096ZM34.6284 54L39.2364 37.2H44.2524L48.8604 54H45.8844L44.8764 50.16H38.6124L37.6044 54H34.6284ZM39.2844 47.52H44.2044L41.9484 39H41.5404L39.2844 47.52ZM69.1399 54.336C67.0919 54.336 65.4599 53.76 64.2439 52.608C63.0279 51.44 62.4199 49.768 62.4199 47.592V43.608C62.4199 41.432 63.0279 39.768 64.2439 38.616C65.4599 37.448 67.0919 36.864 69.1399 36.864C71.1879 36.864 72.7639 37.424 73.8679 38.544C74.9879 39.664 75.5479 41.2 75.5479 43.152V43.296H72.7159V43.08C72.7159 42.024 72.4199 41.16 71.8279 40.488C71.2519 39.8 70.3559 39.456 69.1399 39.456C67.9559 39.456 67.0199 39.824 66.3319 40.56C65.6599 41.28 65.3239 42.28 65.3239 43.56V47.64C65.3239 48.904 65.6599 49.904 66.3319 50.64C67.0199 51.376 67.9559 51.744 69.1399 51.744C70.3559 51.744 71.2519 51.408 71.8279 50.736C72.4199 50.048 72.7159 49.176 72.7159 48.12V47.712H75.5479V48.048C75.5479 50 74.9879 51.536 73.8679 52.656C72.7639 53.776 71.1879 54.336 69.1399 54.336ZM90.2498 54V37.2H93.1538V44.04H93.5618L99.4178 37.2H103.138L95.8178 45.48L103.378 54H99.5618L93.5618 47.016H93.1538V54H90.2498ZM116.003 54L120.611 37.2H125.627L130.235 54H127.259L126.251 50.16H119.987L118.979 54H116.003ZM120.659 47.52H125.579L123.323 39H122.915L120.659 47.52ZM150.035 54.336C148.851 54.336 147.787 54.08 146.843 53.568C145.915 53.04 145.171 52.28 144.611 51.288C144.067 50.28 143.795 49.048 143.795 47.592V43.608C143.795 41.432 144.403 39.768 145.619 38.616C146.835 37.448 148.467 36.864 150.515 36.864C152.563 36.864 154.139 37.416 155.243 38.52C156.347 39.608 156.899 41.08 156.899 42.936V43.032H154.067V42.84C154.067 42.2 153.939 41.624 153.683 41.112C153.427 40.6 153.035 40.2 152.507 39.912C151.979 39.608 151.315 39.456 150.515 39.456C149.331 39.456 148.395 39.824 147.707 40.56C147.035 41.28 146.699 42.28 146.699 43.56V47.64C146.699 48.904 147.035 49.912 147.707 50.664C148.395 51.416 149.347 51.792 150.563 51.792C151.779 51.792 152.667 51.464 153.227 50.808C153.787 50.152 154.067 49.312 154.067 48.288V48H149.819V45.552H156.899V54H154.259V52.344H153.851C153.723 52.632 153.523 52.936 153.251 53.256C152.979 53.56 152.587 53.816 152.075 54.024C151.579 54.232 150.899 54.336 150.035 54.336ZM172.07 54V37.2H182.774V39.816H174.974V44.232H182.102V46.848H174.974V51.384H182.894V54H172.07ZM203.19 54.336C201.91 54.336 200.774 54.112 199.782 53.664C198.806 53.2 198.038 52.536 197.478 51.672C196.918 50.808 196.638 49.752 196.638 48.504V47.88H199.494V48.504C199.494 49.608 199.83 50.432 200.502 50.976C201.174 51.52 202.07 51.792 203.19 51.792C204.326 51.792 205.182 51.56 205.758 51.096C206.334 50.632 206.622 50.032 206.622 49.296C206.622 48.8 206.486 48.4 206.214 48.096C205.942 47.776 205.542 47.52 205.014 47.328C204.502 47.136 203.878 46.952 203.142 46.776L202.422 46.632C201.318 46.376 200.358 46.056 199.542 45.672C198.742 45.272 198.126 44.76 197.694 44.136C197.262 43.512 197.046 42.696 197.046 41.688C197.046 40.68 197.286 39.816 197.766 39.096C198.246 38.376 198.926 37.824 199.806 37.44C200.686 37.056 201.718 36.864 202.902 36.864C204.086 36.864 205.142 37.064 206.07 37.464C206.998 37.864 207.726 38.464 208.254 39.264C208.798 40.064 209.07 41.064 209.07 42.264V43.056H206.214V42.264C206.214 41.576 206.078 41.024 205.806 40.608C205.534 40.192 205.15 39.888 204.654 39.696C204.158 39.504 203.574 39.408 202.902 39.408C201.91 39.408 201.158 39.6 200.646 39.984C200.134 40.368 199.878 40.912 199.878 41.616C199.878 42.064 199.99 42.448 200.214 42.768C200.454 43.072 200.798 43.328 201.246 43.536C201.71 43.728 202.286 43.896 202.974 44.04L203.694 44.208C204.846 44.464 205.854 44.792 206.718 45.192C207.582 45.576 208.254 46.088 208.734 46.728C209.23 47.368 209.478 48.2 209.478 49.224C209.478 50.232 209.214 51.12 208.686 51.888C208.174 52.656 207.446 53.256 206.502 53.688C205.574 54.12 204.47 54.336 203.19 54.336Z" fill="#00A8E8"/>
<path fill-rule="evenodd" clip-rule="evenodd" d="M181.587 0.038939C181.587 0.0296752 181.584 0.0207915 181.577 0.0142422L181.573 0.0102501C181.567 0.00370398 181.558 2.66423e-05 181.548 2.66423e-05H160.674C160.665 2.66423e-05 160.656 0.00370756 160.649 0.0102593L160.645 0.0142438C160.639 0.0207923 160.635 0.0296725 160.635 0.0389318V27.8976C160.635 27.9069 160.639 27.9158 160.645 27.9223L160.649 27.9263C160.656 27.9329 160.665 27.9366 160.674 27.9366H181.548C181.558 27.9366 181.567 27.9329 181.573 27.9263L181.577 27.9223C181.584 27.9158 181.587 27.9069 181.587 27.8976V20.9913C181.587 20.9821 181.584 20.9732 181.577 20.9666L181.573 20.9627C181.567 20.9561 181.558 20.9524 181.548 20.9524H167.658C167.649 20.9524 167.64 20.9487 167.633 20.9422L167.629 20.9382C167.623 20.9317 167.619 20.9228 167.619 20.9135V14.0499C167.619 14.0362 167.627 14.0239 167.64 14.0187C167.653 14.0134 167.667 14.0163 167.677 14.026L171.111 17.4502C171.118 17.4567 171.126 17.4604 171.136 17.4604H181.548C181.558 17.4604 181.567 17.4567 181.573 17.4501L181.577 17.4461C181.584 17.4396 181.587 17.4307 181.587 17.4214V0.038939ZM174.564 10.4762C174.574 10.4762 174.582 10.4725 174.589 10.466L174.593 10.462C174.6 10.4555 174.603 10.4466 174.603 10.4373V7.02307C174.603 7.01381 174.6 7.00493 174.593 6.99838L174.589 6.9944C174.582 6.98784 174.574 6.98416 174.564 6.98416H167.658C167.649 6.98416 167.64 6.98784 167.633 6.99439L167.629 6.99838C167.623 7.00493 167.619 7.01381 167.619 7.02308V10.4373C167.619 10.4466 167.623 10.4555 167.629 10.462L167.633 10.466C167.64 10.4725 167.649 10.4762 167.658 10.4762H174.564Z" fill="#4CB5F5"/>
<path d="M136.201 27.9223C136.194 27.9158 136.19 27.9069 136.19 27.8976V0.0389318C136.19 0.0296725 136.194 0.0207923 136.201 0.0142438L136.205 0.0102593C136.211 0.00370755 136.22 2.66423e-05 136.229 2.66423e-05H143.136C143.145 2.66423e-05 143.154 0.00370042 143.16 0.0102409L143.164 0.0142406C143.171 0.0207906 143.175 0.0296787 143.175 0.038947V3.41048C143.175 3.42416 143.183 3.43649 143.195 3.44173C143.208 3.44695 143.223 3.44407 143.232 3.43443L146.667 0.0102185C146.673 0.00369174 146.682 2.66423e-05 146.691 2.66423e-05H157.104C157.113 2.66423e-05 157.122 0.00370399 157.129 0.0102501L157.133 0.0142422C157.139 0.0207914 157.143 0.0296753 157.143 0.038939V27.8976C157.143 27.9069 157.139 27.9158 157.133 27.9223L157.129 27.9263C157.122 27.9329 157.113 27.9365 157.104 27.9365H150.198C150.188 27.9365 150.179 27.9328 150.173 27.9263L150.169 27.9223C150.162 27.9158 150.159 27.9069 150.159 27.8976V7.02307C150.159 7.0138 150.155 7.00491 150.148 6.99836L150.144 6.99436C150.138 6.98782 150.129 6.98415 150.12 6.98415H143.214C143.204 6.98415 143.195 6.98783 143.189 6.99438L143.185 6.99836C143.178 7.00491 143.175 7.01379 143.175 7.02305V27.8976C143.175 27.9069 143.171 27.9158 143.164 27.9223L143.16 27.9263C143.154 27.9329 143.145 27.9365 143.136 27.9365H136.229C136.22 27.9365 136.211 27.9328 136.205 27.9263L136.201 27.9223Z" fill="#4CB5F5"/>
<path fill-rule="evenodd" clip-rule="evenodd" d="M111.746 27.8976C111.746 27.9069 111.75 27.9158 111.756 27.9223L111.76 27.9263C111.767 27.9329 111.776 27.9366 111.785 27.9366H132.66C132.669 27.9366 132.678 27.9329 132.684 27.9263L132.688 27.9223C132.695 27.9158 132.698 27.9069 132.698 27.8976V0.0389241C132.698 0.0296694 132.695 0.0207931 132.688 0.0142454L132.684 0.0102685C132.678 0.00371114 132.669 2.66423e-05 132.66 2.66423e-05H111.785C111.776 2.66423e-05 111.767 0.00370756 111.76 0.0102593L111.756 0.0142438C111.75 0.0207923 111.746 0.0296725 111.746 0.0389318V6.94525C111.746 6.95451 111.75 6.96339 111.756 6.96994L111.76 6.97392C111.767 6.98047 111.776 6.98415 111.785 6.98415H125.675C125.685 6.98415 125.694 6.98783 125.7 6.99439L125.704 6.99837C125.711 7.00492 125.714 7.0138 125.714 7.02306V13.8867C125.714 13.9004 125.706 13.9127 125.693 13.9179C125.681 13.9232 125.666 13.9203 125.657 13.9106L122.222 10.4864C122.216 10.4799 122.207 10.4762 122.198 10.4762H111.785C111.776 10.4762 111.767 10.4799 111.76 10.4865L111.756 10.4904C111.75 10.497 111.746 10.5059 111.746 10.5151V27.8976ZM118.769 17.4604C118.76 17.4604 118.751 17.464 118.744 17.4706L118.74 17.4746C118.734 17.4811 118.73 17.49 118.73 17.4993V20.9135C118.73 20.9228 118.734 20.9317 118.74 20.9382L118.744 20.9422C118.751 20.9487 118.76 20.9524 118.769 20.9524H125.675C125.685 20.9524 125.694 20.9487 125.7 20.9422L125.704 20.9382C125.711 20.9317 125.714 20.9228 125.714 20.9135V17.4993C125.714 17.49 125.711 17.4811 125.704 17.4746L125.7 17.4706C125.694 17.464 125.685 17.4604 125.675 17.4604H118.769Z" fill="#4CB5F5"/>
<path fill-rule="evenodd" clip-rule="evenodd" d="M104.748 13.9683C104.757 13.9683 104.766 13.9646 104.772 13.9582L108.23 10.5352L108.254 0.0389523C108.254 0.0296651 108.25 0.0207519 108.244 0.0141835L108.24 0.0102331C108.233 0.00368109 108.224 0 108.215 0H87.3405C87.3312 0 87.3223 0.0036809 87.3158 0.0102326L87.3118 0.0142171C87.3053 0.0207656 87.3016 0.0296448 87.3016 0.0389041V27.8976C87.302 27.9063 87.3057 27.9162 87.3118 27.9223L87.3158 27.9263C87.3223 27.9329 87.3312 27.9366 87.3405 27.9366H108.215C108.224 27.9366 108.233 27.9329 108.24 27.9263L108.244 27.9224C108.25 27.9158 108.254 27.9069 108.254 27.8976L108.23 17.4013L104.772 13.9784C104.766 13.9719 104.757 13.9683 104.748 13.9683ZM94.2857 20.9135C94.2857 20.9228 94.2894 20.9317 94.2959 20.9382L94.2999 20.9422C94.3065 20.9487 94.3153 20.9524 94.3246 20.9524H101.231C101.24 20.9524 101.249 20.9487 101.256 20.9422L101.26 20.9382C101.266 20.9317 101.27 20.9228 101.27 20.9135V17.4993C101.27 17.49 101.266 17.4811 101.26 17.4746L101.256 17.4706C101.249 17.464 101.24 17.4604 101.231 17.4604H94.3246C94.3153 17.4604 94.3065 17.464 94.2999 17.4706L94.2959 17.4746C94.2894 17.4811 94.2857 17.49 94.2857 17.4993V20.9135ZM101.256 6.99438C101.249 6.98782 101.24 6.98413 101.231 6.98413H94.3246C94.3153 6.98413 94.3065 6.98782 94.2999 6.99438L94.2959 6.99835C94.2894 7.0049 94.2857 7.01378 94.2857 7.02303V10.4373C94.2857 10.4466 94.2894 10.4554 94.2959 10.462L94.2999 10.466C94.3065 10.4725 94.3153 10.4762 94.3246 10.4762H101.231C101.24 10.4762 101.249 10.4725 101.256 10.466L101.26 10.462C101.266 10.4554 101.27 10.4466 101.27 10.4373V7.02303C101.27 7.01378 101.266 7.0049 101.26 6.99835L101.256 6.99438Z" fill="#4CB5F5"/>
<path d="M62.8572 27.9016L62.8571 6.98415L55.8975 6.98415L55.873 7.00859V27.9121L55.8486 27.9365H48.9133L48.8889 27.9121V0.024471L48.9133 2.66423e-05H55.8486L55.873 0.024471V3.43308L59.3752 2.66423e-05H69.8064C69.8256 2.66423e-05 69.8413 0.015661 69.8413 0.0349472L69.8413 3.45036L73.3435 2.66423e-05H83.7851L83.8095 0.024471V27.9121L83.7851 27.9365H76.8498L76.8254 27.9121V7.00859L76.801 6.98415L69.8413 6.98413L69.8413 27.9016C69.8413 27.9209 69.8261 27.9365 69.8069 27.9365H62.8893C62.8701 27.9365 62.8572 27.9209 62.8572 27.9016Z" fill="#4CB5F5"/>
<path d="M206.032 0.0349381L206.032 20.9524L212.991 20.9524L213.016 20.928V0.024461L213.04 1.66515e-05H219.976L220 0.024461V27.9121L219.976 27.9365H213.04L213.016 27.9121V24.5035L209.514 27.9365H199.083C199.063 27.9365 199.048 27.9209 199.048 27.9016V24.4862L195.545 27.9365H185.104L185.079 27.9121V0.024461L185.104 1.66515e-05H192.039L192.063 0.024461V20.928L192.088 20.9524L199.048 20.9524V0.0349381C199.048 0.0156507 199.063 1.66515e-05 199.082 1.66515e-05H206C206.019 1.66515e-05 206.032 0.0156524 206.032 0.0349381Z" fill="#4CB5F5"/>
<path d="M45.3866 0.014243C45.3931 0.0207919 45.3968 0.0296742 45.3968 0.0389357V27.8976C45.3968 27.9069 45.3931 27.9158 45.3866 27.9223L45.3826 27.9263C45.3761 27.9328 45.3672 27.9365 45.3579 27.9365H38.4516C38.4423 27.9365 38.4335 27.9328 38.4269 27.9263L38.4229 27.9223C38.4164 27.9158 38.4127 27.9069 38.4127 27.8976V24.5261C38.4127 24.5124 38.4045 24.5001 38.3918 24.4948C38.3792 24.4896 38.3647 24.4925 38.355 24.5021L34.9207 27.9263C34.9142 27.9329 34.9053 27.9365 34.8961 27.9365H24.4834C24.4741 27.9365 24.4652 27.9329 24.4587 27.9263L24.4547 27.9223C24.4481 27.9158 24.4444 27.9069 24.4444 27.8976V0.0389394C24.4444 0.0296756 24.4481 0.0207914 24.4547 0.0142422L24.4587 0.0102501C24.4652 0.00370398 24.4741 2.66423e-05 24.4834 2.66423e-05H31.3897C31.3989 2.66423e-05 31.4078 0.00370398 31.4144 0.01025L31.4184 0.0142422C31.4249 0.0207914 31.4286 0.0296751 31.4286 0.0389389V20.9135C31.4286 20.9228 31.4323 20.9316 31.4388 20.9382L31.4428 20.9422C31.4493 20.9487 31.4582 20.9524 31.4675 20.9524H38.3738C38.383 20.9524 38.3919 20.9487 38.3985 20.9422L38.4025 20.9382C38.409 20.9316 38.4127 20.9227 38.4127 20.9135V0.0389314C38.4127 0.0296723 38.4164 0.0207923 38.4229 0.0142438L38.4269 0.0102597C38.4335 0.00370773 38.4423 2.66423e-05 38.4516 2.66423e-05H45.3579C45.3672 2.66423e-05 45.3761 0.00370578 45.3826 0.0102547L45.3866 0.014243Z" fill="#4CB5F5"/>
<path d="M0.010228 27.9223C0.00367913 27.9158 0 27.9069 0 27.8976V0.0389356C0 0.0296741 0.00367913 0.0207919 0.010228 0.014243L0.0142163 0.0102546C0.0207652 0.00370576 0.0296475 2.66423e-05 0.0389091 2.66423e-05H6.94522C6.95448 2.66423e-05 6.96336 0.00370578 6.96991 0.0102547L6.9739 0.014243C6.98045 0.0207919 6.98413 0.0296734 6.98413 0.0389349V13.8867C6.98413 13.9003 6.99237 13.9127 7.005 13.9179C7.01763 13.9231 7.03216 13.9203 7.04184 13.9106L10.476 10.4865C10.4826 10.4799 10.4916 10.4762 10.5009 10.4763L13.9683 10.5007V2.66423e-05L20.9279 0.024471L20.9524 10.5007V27.8976C20.9524 27.9069 20.9487 27.9158 20.9422 27.9223L20.9382 27.9263C20.9316 27.9329 20.9227 27.9365 20.9135 27.9365H14.0072C13.9979 27.9365 13.989 27.9329 13.9825 27.9263L13.9785 27.9223C13.9719 27.9158 13.9683 27.9069 13.9683 27.8976V17.4993C13.9683 17.49 13.9646 17.4811 13.958 17.4746L13.954 17.4706C13.9475 17.464 13.9386 17.4603 13.9293 17.4603H7.02304C7.01377 17.4603 7.00489 17.464 6.99834 17.4706L6.99436 17.4746C6.98781 17.4811 6.98413 17.49 6.98413 17.4993V27.8976C6.98413 27.9069 6.98045 27.9158 6.9739 27.9223L6.96991 27.9263C6.96336 27.9329 6.95448 27.9365 6.94522 27.9365H0.0389089C0.0296474 27.9365 0.0207652 27.9329 0.0142163 27.9263L0.010228 27.9223Z" fill="#4CB5F5"/>
</svg>
