<svg width="400" height="92" viewBox="0 0 400 92" fill="none" xmlns="http://www.w3.org/2000/svg">
<path d="M92.112 83V60.6H101.328C102.736 60.6 103.973 60.888 105.04 61.464C106.128 62.0187 106.971 62.808 107.568 63.832C108.187 64.856 108.496 66.072 108.496 67.48V67.928C108.496 69.3147 108.176 70.5307 107.536 71.576C106.917 72.6 106.064 73.4 104.976 73.976C103.909 74.5307 102.693 74.808 101.328 74.808H96.336V83H92.112ZM96.336 70.968H100.912C101.915 70.968 102.725 70.6907 103.344 70.136C103.963 69.5813 104.272 68.824 104.272 67.864V67.544C104.272 66.584 103.963 65.8267 103.344 65.272C102.725 64.7173 101.915 64.44 100.912 64.44H96.336V70.968ZM117.13 83L123.018 60.6H130.378L136.266 83H131.914L130.698 78.072H122.698L121.482 83H117.13ZM123.69 74.168H129.706L126.986 63.256H126.41L123.69 74.168ZM156.231 83.448C153.458 83.448 151.261 82.68 149.639 81.144C148.018 79.5867 147.207 77.368 147.207 74.488V69.112C147.207 66.232 148.018 64.024 149.639 62.488C151.261 60.9307 153.458 60.152 156.231 60.152C158.983 60.152 161.106 60.9093 162.599 62.424C164.114 63.9173 164.872 65.976 164.872 68.6V68.792H160.711V68.472C160.711 67.1493 160.338 66.0613 159.591 65.208C158.866 64.3547 157.746 63.928 156.231 63.928C154.738 63.928 153.565 64.3867 152.711 65.304C151.858 66.2213 151.431 67.4693 151.431 69.048V74.552C151.431 76.1093 151.858 77.3573 152.711 78.296C153.565 79.2133 154.738 79.672 156.231 79.672C157.746 79.672 158.866 79.2453 159.591 78.392C160.338 77.5173 160.711 76.4293 160.711 75.128V74.552H164.872V75C164.872 77.624 164.114 79.6933 162.599 81.208C161.106 82.7013 158.983 83.448 156.231 83.448ZM177.273 83V60.6H181.497V69.496H182.073L189.337 60.6H194.745L185.401 71.64L195.065 83H189.497L182.073 73.912H181.497V83H177.273ZM204.728 83L210.616 60.6H217.976L223.864 83H219.512L218.296 78.072H210.296L209.08 83H204.728ZM211.288 74.168H217.304L214.584 63.256H214.008L211.288 74.168ZM243.062 83.448C241.526 83.448 240.129 83.1067 238.87 82.424C237.633 81.72 236.641 80.7067 235.894 79.384C235.169 78.04 234.806 76.408 234.806 74.488V69.112C234.806 66.232 235.617 64.024 237.238 62.488C238.86 60.9307 241.057 60.152 243.83 60.152C246.582 60.152 248.705 60.888 250.198 62.36C251.713 63.8107 252.47 65.784 252.47 68.28V68.408H248.31V68.152C248.31 67.3627 248.14 66.648 247.798 66.008C247.478 65.368 246.988 64.8667 246.326 64.504C245.665 64.12 244.833 63.928 243.83 63.928C242.337 63.928 241.164 64.3867 240.31 65.304C239.457 66.2213 239.03 67.4693 239.03 69.048V74.552C239.03 76.1093 239.457 77.368 240.31 78.328C241.164 79.2667 242.358 79.736 243.894 79.736C245.43 79.736 246.55 79.3307 247.254 78.52C247.958 77.7093 248.31 76.6853 248.31 75.448V75.128H242.998V71.544H252.47V83H248.566V80.856H247.99C247.841 81.2187 247.596 81.6027 247.254 82.008C246.934 82.4133 246.444 82.7547 245.782 83.032C245.121 83.3093 244.214 83.448 243.062 83.448ZM265.466 83V60.6H279.866V64.44H269.69V69.784H278.97V73.624H269.69V79.16H280.058V83H265.466ZM299.921 83.448C298.193 83.448 296.667 83.1387 295.345 82.52C294.022 81.9013 292.987 81.016 292.241 79.864C291.494 78.712 291.121 77.3253 291.121 75.704V74.808H295.281V75.704C295.281 77.048 295.697 78.0613 296.529 78.744C297.361 79.4053 298.491 79.736 299.921 79.736C301.371 79.736 302.449 79.448 303.153 78.872C303.878 78.296 304.241 77.56 304.241 76.664C304.241 76.0453 304.059 75.544 303.697 75.16C303.355 74.776 302.843 74.4667 302.161 74.232C301.499 73.976 300.689 73.7413 299.729 73.528L298.993 73.368C297.457 73.0267 296.134 72.6 295.025 72.088C293.937 71.5547 293.094 70.8613 292.497 70.008C291.921 69.1547 291.633 68.0453 291.633 66.68C291.633 65.3147 291.953 64.152 292.593 63.192C293.254 62.2107 294.171 61.464 295.345 60.952C296.539 60.4187 297.937 60.152 299.537 60.152C301.137 60.152 302.555 60.4293 303.793 60.984C305.051 61.5173 306.033 62.328 306.737 63.416C307.462 64.4827 307.825 65.8267 307.825 67.448V68.408H303.665V67.448C303.665 66.5947 303.494 65.912 303.153 65.4C302.833 64.8667 302.363 64.4827 301.745 64.248C301.126 63.992 300.39 63.864 299.537 63.864C298.257 63.864 297.307 64.1093 296.689 64.6C296.091 65.0693 295.793 65.72 295.793 66.552C295.793 67.1067 295.931 67.576 296.209 67.96C296.507 68.344 296.945 68.664 297.521 68.92C298.097 69.176 298.833 69.4 299.729 69.592L300.465 69.752C302.065 70.0933 303.451 70.5307 304.625 71.064C305.819 71.5973 306.747 72.3013 307.409 73.176C308.07 74.0507 308.401 75.1707 308.401 76.536C308.401 77.9013 308.049 79.1067 307.345 80.152C306.662 81.176 305.681 81.9867 304.401 82.584C303.142 83.16 301.649 83.448 299.921 83.448Z" fill="#00A8E8"/>
<path fill-rule="evenodd" clip-rule="evenodd" d="M330.159 0.0710857C330.159 0.054174 330.152 0.0379562 330.14 0.0260001L330.133 0.0187121C330.121 0.00676186 330.105 4.86373e-05 330.088 4.86373e-05H292.134C292.117 4.86373e-05 292.101 0.00676838 292.089 0.0187289L292.082 0.0260029C292.07 0.0379577 292.063 0.0541691 292.063 0.0710725V50.929C292.063 50.9459 292.07 50.9621 292.082 50.974L292.089 50.9813C292.101 50.9933 292.117 51 292.134 51H330.088C330.105 51 330.121 50.9933 330.133 50.9813L330.14 50.974C330.152 50.9621 330.159 50.9459 330.159 50.9289V38.321C330.159 38.3041 330.152 38.2879 330.14 38.276L330.133 38.2687C330.121 38.2567 330.105 38.25 330.088 38.25H304.833C304.816 38.25 304.8 38.2433 304.788 38.2313L304.781 38.2241C304.769 38.2121 304.762 38.1959 304.762 38.179V25.649C304.762 25.624 304.777 25.6015 304.8 25.592C304.823 25.5824 304.849 25.5877 304.867 25.6053L311.111 31.8564C311.123 31.8683 311.139 31.875 311.156 31.875H330.088C330.105 31.875 330.121 31.8683 330.133 31.8563L330.14 31.8491C330.152 31.8371 330.159 31.8209 330.159 31.804V0.0710857ZM317.39 19.125C317.406 19.125 317.423 19.1183 317.435 19.1063L317.442 19.0991C317.454 19.0871 317.46 19.0709 317.46 19.054V12.8211C317.46 12.8042 317.454 12.788 317.442 12.776L317.435 12.7687C317.423 12.7568 317.406 12.75 317.39 12.75H304.833C304.816 12.75 304.8 12.7568 304.788 12.7687L304.781 12.776C304.769 12.7879 304.762 12.8042 304.762 12.8211V19.054C304.762 19.0709 304.769 19.0871 304.781 19.0991L304.788 19.1064C304.8 19.1183 304.816 19.125 304.833 19.125H317.39Z" fill="#00A8E8"/>
<path d="M247.638 50.974C247.626 50.962 247.619 50.9458 247.619 50.9289V0.0710725C247.619 0.0541691 247.626 0.0379576 247.638 0.0260029L247.645 0.0187289C247.657 0.00676838 247.673 4.86373e-05 247.69 4.86373e-05H260.247C260.264 4.86373e-05 260.28 0.00675535 260.292 0.0186954L260.299 0.0259971C260.311 0.0379546 260.318 0.0541803 260.318 0.0711002V6.22604C260.318 6.25102 260.332 6.27353 260.355 6.28309C260.378 6.29264 260.405 6.28738 260.422 6.26977L266.667 0.0186546C266.678 0.00673951 266.695 4.86373e-05 266.711 4.86373e-05H285.644C285.66 4.86373e-05 285.677 0.00676187 285.688 0.0187122L285.696 0.026C285.708 0.0379561 285.714 0.0541741 285.714 0.0710857V50.9289C285.714 50.9458 285.708 50.962 285.696 50.974L285.688 50.9813C285.677 50.9932 285.66 50.9999 285.644 50.9999H273.087C273.07 50.9999 273.054 50.9932 273.042 50.9813L273.034 50.974C273.023 50.962 273.016 50.9458 273.016 50.9289V12.8211C273.016 12.8041 273.009 12.7879 272.997 12.776L272.99 12.7687C272.978 12.7567 272.962 12.75 272.945 12.75H260.388C260.371 12.75 260.355 12.7567 260.343 12.7687L260.336 12.776C260.324 12.7879 260.318 12.8041 260.318 12.821V50.9289C260.318 50.9458 260.311 50.962 260.299 50.974L260.292 50.9813C260.28 50.9932 260.264 50.9999 260.247 50.9999H247.69C247.673 50.9999 247.657 50.9932 247.645 50.9813L247.638 50.974Z" fill="#00A8E8"/>
<path fill-rule="evenodd" clip-rule="evenodd" d="M203.175 50.929C203.175 50.9459 203.181 50.9621 203.193 50.974L203.2 50.9813C203.212 50.9933 203.228 51 203.245 51H241.199C241.216 51 241.232 50.9933 241.244 50.9813L241.251 50.974C241.263 50.9621 241.27 50.9459 241.27 50.929V0.0710585C241.27 0.0541633 241.263 0.0379592 241.251 0.0260058L241.244 0.0187458C241.232 0.00677492 241.216 4.86373e-05 241.199 4.86373e-05H203.245C203.228 4.86373e-05 203.212 0.00676838 203.2 0.0187289L203.193 0.0260029C203.181 0.0379577 203.175 0.0541691 203.175 0.0710725V12.679C203.175 12.6959 203.181 12.7121 203.193 12.7241L203.2 12.7313C203.212 12.7433 203.228 12.75 203.245 12.75H228.501C228.518 12.75 228.534 12.7567 228.546 12.7687L228.553 12.776C228.565 12.7879 228.571 12.8041 228.571 12.821V25.351C228.571 25.376 228.556 25.3985 228.533 25.4081C228.511 25.4176 228.484 25.4124 228.467 25.3947L222.222 19.1436C222.211 19.1317 222.194 19.125 222.178 19.125H203.245C203.228 19.125 203.212 19.1317 203.2 19.1437L203.193 19.151C203.181 19.1629 203.175 19.1791 203.175 19.196V50.929ZM215.944 31.875C215.927 31.875 215.911 31.8817 215.899 31.8937L215.892 31.901C215.88 31.9129 215.873 31.9291 215.873 31.946V38.179C215.873 38.1959 215.88 38.2121 215.892 38.224L215.899 38.2313C215.911 38.2433 215.927 38.25 215.944 38.25H228.501C228.518 38.25 228.534 38.2433 228.546 38.2313L228.553 38.224C228.565 38.2121 228.571 38.1959 228.571 38.179V31.946C228.571 31.9291 228.565 31.9129 228.553 31.901L228.546 31.8937C228.534 31.8817 228.518 31.875 228.501 31.875H215.944Z" fill="#00A8E8"/>
<path fill-rule="evenodd" clip-rule="evenodd" d="M190.45 25.5C190.467 25.5 190.483 25.4934 190.495 25.4816L196.781 19.2327L196.825 0.0711099C196.825 0.0541556 196.819 0.037884 196.807 0.025893L196.8 0.0186811C196.788 0.00672007 196.772 0 196.755 0H158.801C158.784 0 158.768 0.00671972 158.756 0.0186803L158.749 0.0259542C158.737 0.037909 158.73 0.0541185 158.73 0.071022V50.9289C158.731 50.9447 158.738 50.9628 158.749 50.974L158.756 50.9813C158.768 50.9932 158.784 51 158.801 51H196.755C196.772 51 196.788 50.9933 196.8 50.9813L196.807 50.9741C196.819 50.9621 196.825 50.9458 196.825 50.9289L196.781 31.7673L190.495 25.5184C190.483 25.5066 190.467 25.5 190.45 25.5ZM171.429 38.179C171.429 38.1959 171.435 38.2121 171.447 38.2241L171.454 38.2313C171.466 38.2433 171.482 38.25 171.499 38.25H184.056C184.073 38.25 184.089 38.2433 184.101 38.2313L184.108 38.2241C184.12 38.2121 184.127 38.1959 184.127 38.179V31.946C184.127 31.9291 184.12 31.9129 184.108 31.901L184.101 31.8937C184.089 31.8817 184.073 31.875 184.056 31.875H171.499C171.482 31.875 171.466 31.8817 171.454 31.8937L171.447 31.901C171.435 31.9129 171.429 31.9291 171.429 31.946V38.179ZM184.101 12.7687C184.089 12.7567 184.073 12.75 184.056 12.75H171.499C171.482 12.75 171.466 12.7567 171.454 12.7687L171.447 12.7759C171.435 12.7879 171.429 12.8041 171.429 12.821V19.054C171.429 19.0709 171.435 19.0871 171.447 19.099L171.454 19.1063C171.466 19.1183 171.482 19.125 171.499 19.125H184.056C184.073 19.125 184.089 19.1183 184.101 19.1063L184.108 19.099C184.12 19.0871 184.127 19.0709 184.127 19.054V12.821C184.127 12.8041 184.12 12.7879 184.108 12.7759L184.101 12.7687Z" fill="#00A8E8"/>
<path d="M114.286 50.9362L114.286 12.75L101.632 12.75L101.587 12.7946V50.9553L101.543 50.9999H88.9334L88.8889 50.9553V0.0446734L88.9334 4.86373e-05H101.543L101.587 0.0446734V6.2673L107.955 4.86373e-05H126.921C126.956 4.86373e-05 126.984 0.0285903 126.984 0.0637984L126.984 6.29885L133.352 4.86373e-05H152.337L152.381 0.0446734V50.9553L152.337 50.9999H139.727L139.683 50.9553V12.7946L139.638 12.75L126.984 12.75L126.984 50.9362C126.984 50.9714 126.957 50.9999 126.922 50.9999H114.344C114.309 50.9999 114.286 50.9714 114.286 50.9362Z" fill="#00A8E8"/>
<path d="M374.603 0.0637817L374.603 38.2499L387.257 38.25L387.302 38.2053V0.0446551L387.346 3.03983e-05H399.956L400 0.0446551V50.9553L399.956 50.9999H387.346L387.302 50.9553V44.7327L380.934 50.9999H361.968C361.933 50.9999 361.905 50.9714 361.905 50.9362V44.7011L355.537 50.9999H336.552L336.508 50.9553V0.0446551L336.552 3.03983e-05H349.162L349.206 0.0446551V38.2053L349.251 38.25L361.905 38.25V0.0637817C361.905 0.0285714 361.932 3.03983e-05 361.967 3.03983e-05H374.545C374.58 3.03983e-05 374.603 0.0285744 374.603 0.0637817Z" fill="#00A8E8"/>
<path d="M82.5211 0.0260014C82.533 0.0379569 82.5397 0.0541722 82.5397 0.0710797V50.9289C82.5397 50.9458 82.533 50.962 82.5211 50.974L82.5138 50.9813C82.5019 50.9932 82.4858 50.9999 82.4689 50.9999H69.912C69.8952 50.9999 69.879 50.9932 69.8671 50.9813L69.8599 50.974C69.848 50.962 69.8413 50.9458 69.8413 50.9289V44.774C69.8413 44.749 69.8263 44.7265 69.8033 44.7169C69.7804 44.7074 69.7539 44.7126 69.7364 44.7302L63.4923 50.9813C63.4804 50.9932 63.4642 50.9999 63.4474 50.9999H44.5152C44.4984 50.9999 44.4822 50.9932 44.4703 50.9813L44.4631 50.974C44.4511 50.962 44.4444 50.9458 44.4444 50.9289V0.0710864C44.4444 0.0541747 44.4511 0.0379561 44.4631 0.026L44.4703 0.0187121C44.4822 0.00676186 44.4984 4.86373e-05 44.5152 4.86373e-05H57.0721C57.089 4.86373e-05 57.1051 0.00676185 57.117 0.0187121L57.1243 0.026C57.1362 0.0379561 57.1429 0.0541738 57.1429 0.0710855V38.1789C57.1429 38.1959 57.1496 38.2121 57.1615 38.224L57.1687 38.2313C57.1806 38.2432 57.1968 38.25 57.2136 38.25H69.7705C69.7874 38.25 69.8035 38.2433 69.8154 38.2313L69.8227 38.224C69.8346 38.212 69.8413 38.1958 69.8413 38.1789V0.0710718C69.8413 0.0541688 69.848 0.0379577 69.8599 0.026003L69.8671 0.0187298C69.879 0.0067687 69.8952 4.86373e-05 69.912 4.86373e-05H82.4689C82.4858 4.86373e-05 82.5019 0.00676513 82.5138 0.0187206L82.5211 0.0260014Z" fill="#00A8E8"/>
<path d="M0.0185964 50.974C0.00668932 50.962 0 50.9458 0 50.9289V0.0710794C0 0.0541719 0.00668932 0.0379569 0.0185964 0.0260014L0.0258479 0.0187205C0.037755 0.00676511 0.0539046 4.86373e-05 0.0707438 4.86373e-05H12.6277C12.6445 4.86373e-05 12.6607 0.00676513 12.6726 0.0187206L12.6798 0.0260014C12.6917 0.0379569 12.6984 0.0541707 12.6984 0.0710782V25.351C12.6984 25.376 12.7134 25.3985 12.7364 25.4081C12.7593 25.4176 12.7857 25.4123 12.8033 25.3947L19.0473 19.1438C19.0593 19.1318 19.0756 19.1251 19.0925 19.1252L25.3968 19.1696V4.86373e-05L38.0508 0.0446734L38.0952 19.1696V50.9289C38.0952 50.9458 38.0886 50.962 38.0766 50.974L38.0694 50.9813C38.0575 50.9932 38.0413 50.9999 38.0245 50.9999H25.4676C25.4507 50.9999 25.4346 50.9932 25.4227 50.9813L25.4154 50.974C25.4035 50.962 25.3968 50.9458 25.3968 50.9289V31.946C25.3968 31.9291 25.3901 31.9129 25.3782 31.9009L25.371 31.8937C25.3591 31.8817 25.3429 31.875 25.3261 31.875H12.7692C12.7523 31.875 12.7362 31.8817 12.7243 31.8937L12.717 31.9009C12.7051 31.9129 12.6984 31.9291 12.6984 31.946V50.9289C12.6984 50.9458 12.6917 50.962 12.6798 50.974L12.6726 50.9813C12.6607 50.9932 12.6445 50.9999 12.6277 50.9999H0.0707435C0.0539044 50.9999 0.037755 50.9932 0.0258479 50.9813L0.0185964 50.974Z" fill="#00A8E8"/>
</svg>
