<svg width="617" height="69" viewBox="0 0 617 69" fill="none" xmlns="http://www.w3.org/2000/svg">
<path d="M371.564 53V15.2H387.116C389.492 15.2 391.58 15.686 393.38 16.658C395.216 17.594 396.638 18.926 397.646 20.654C398.69 22.382 399.212 24.434 399.212 26.81V27.566C399.212 29.906 398.672 31.958 397.592 33.722C396.548 35.45 395.108 36.8 393.272 37.772C391.472 38.708 389.42 39.176 387.116 39.176H378.692V53H371.564ZM378.692 32.696H386.414C388.106 32.696 389.474 32.228 390.518 31.292C391.562 30.356 392.084 29.078 392.084 27.458V26.918C392.084 25.298 391.562 24.02 390.518 23.084C389.474 22.148 388.106 21.68 386.414 21.68H378.692V32.696ZM412.159 53.756C410.251 53.756 408.541 53.432 407.029 52.784C405.517 52.1 404.311 51.128 403.411 49.868C402.547 48.572 402.115 47.006 402.115 45.17C402.115 43.334 402.547 41.804 403.411 40.58C404.311 39.32 405.535 38.384 407.083 37.772C408.667 37.124 410.467 36.8 412.483 36.8H419.827V35.288C419.827 34.028 419.431 33.002 418.639 32.21C417.847 31.382 416.587 30.968 414.859 30.968C413.167 30.968 411.907 31.364 411.079 32.156C410.251 32.912 409.711 33.902 409.459 35.126L403.195 33.02C403.627 31.652 404.311 30.41 405.247 29.294C406.219 28.142 407.497 27.224 409.081 26.54C410.701 25.82 412.663 25.46 414.967 25.46C418.495 25.46 421.285 26.342 423.337 28.106C425.389 29.87 426.415 32.426 426.415 35.774V45.764C426.415 46.844 426.919 47.384 427.927 47.384H430.087V53H425.551C424.219 53 423.121 52.676 422.257 52.028C421.393 51.38 420.961 50.516 420.961 49.436V49.382H419.935C419.791 49.814 419.467 50.39 418.963 51.11C418.459 51.794 417.667 52.406 416.587 52.946C415.507 53.486 414.031 53.756 412.159 53.756ZM413.347 48.248C415.255 48.248 416.803 47.726 417.991 46.682C419.215 45.602 419.827 44.18 419.827 42.416V41.876H412.969C411.709 41.876 410.719 42.146 409.999 42.686C409.279 43.226 408.919 43.982 408.919 44.954C408.919 45.926 409.297 46.718 410.053 47.33C410.809 47.942 411.907 48.248 413.347 48.248ZM447.116 53.756C444.524 53.756 442.166 53.216 440.042 52.136C437.954 51.056 436.298 49.49 435.074 47.438C433.85 45.386 433.238 42.902 433.238 39.986V39.23C433.238 36.314 433.85 33.83 435.074 31.778C436.298 29.726 437.954 28.16 440.042 27.08C442.166 26 444.524 25.46 447.116 25.46C449.672 25.46 451.868 25.91 453.704 26.81C455.54 27.71 457.016 28.952 458.132 30.536C459.284 32.084 460.04 33.848 460.4 35.828L453.812 37.232C453.668 36.152 453.344 35.18 452.84 34.316C452.336 33.452 451.616 32.768 450.68 32.264C449.78 31.76 448.646 31.508 447.278 31.508C445.91 31.508 444.668 31.814 443.552 32.426C442.472 33.002 441.608 33.884 440.96 35.072C440.348 36.224 440.042 37.646 440.042 39.338V39.878C440.042 41.57 440.348 43.01 440.96 44.198C441.608 45.35 442.472 46.232 443.552 46.844C444.668 47.42 445.91 47.708 447.278 47.708C449.33 47.708 450.878 47.186 451.922 46.142C453.002 45.062 453.686 43.658 453.974 41.93L460.562 43.496C460.094 45.404 459.284 47.15 458.132 48.734C457.016 50.282 455.54 51.506 453.704 52.406C451.868 53.306 449.672 53.756 447.116 53.756ZM466.175 53V15.2H472.979V36.098H473.951L482.807 26.216H491.663L479.297 39.176L492.095 53H483.347L473.951 42.362H472.979V53H466.175ZM504.444 53.756C502.536 53.756 500.826 53.432 499.314 52.784C497.802 52.1 496.596 51.128 495.696 49.868C494.832 48.572 494.4 47.006 494.4 45.17C494.4 43.334 494.832 41.804 495.696 40.58C496.596 39.32 497.82 38.384 499.368 37.772C500.952 37.124 502.752 36.8 504.768 36.8H512.112V35.288C512.112 34.028 511.716 33.002 510.924 32.21C510.132 31.382 508.872 30.968 507.144 30.968C505.452 30.968 504.192 31.364 503.364 32.156C502.536 32.912 501.996 33.902 501.744 35.126L495.48 33.02C495.912 31.652 496.596 30.41 497.532 29.294C498.504 28.142 499.782 27.224 501.366 26.54C502.986 25.82 504.948 25.46 507.252 25.46C510.78 25.46 513.57 26.342 515.622 28.106C517.674 29.87 518.7 32.426 518.7 35.774V45.764C518.7 46.844 519.204 47.384 520.212 47.384H522.372V53H517.836C516.504 53 515.406 52.676 514.542 52.028C513.678 51.38 513.246 50.516 513.246 49.436V49.382H512.22C512.076 49.814 511.752 50.39 511.248 51.11C510.744 51.794 509.952 52.406 508.872 52.946C507.792 53.486 506.316 53.756 504.444 53.756ZM505.632 48.248C507.54 48.248 509.088 47.726 510.276 46.682C511.5 45.602 512.112 44.18 512.112 42.416V41.876H505.254C503.994 41.876 503.004 42.146 502.284 42.686C501.564 43.226 501.204 43.982 501.204 44.954C501.204 45.926 501.582 46.718 502.338 47.33C503.094 47.942 504.192 48.248 505.632 48.248ZM525.523 39.716V38.852C525.523 36.044 526.081 33.65 527.197 31.67C528.313 29.654 529.789 28.124 531.625 27.08C533.497 26 535.531 25.46 537.727 25.46C540.175 25.46 542.029 25.892 543.289 26.756C544.549 27.62 545.467 28.52 546.043 29.456H547.015V26.216H553.711V57.752C553.711 59.588 553.171 61.046 552.091 62.126C551.011 63.242 549.571 63.8 547.771 63.8H529.843V57.86H545.395C546.403 57.86 546.907 57.32 546.907 56.24V49.274H545.935C545.575 49.85 545.071 50.444 544.423 51.056C543.775 51.632 542.911 52.118 541.831 52.514C540.751 52.91 539.383 53.108 537.727 53.108C535.531 53.108 533.497 52.586 531.625 51.542C529.789 50.462 528.313 48.932 527.197 46.952C526.081 44.936 525.523 42.524 525.523 39.716ZM539.671 47.168C541.759 47.168 543.505 46.502 544.909 45.17C546.313 43.838 547.015 41.966 547.015 39.554V39.014C547.015 36.566 546.313 34.694 544.909 33.398C543.541 32.066 541.795 31.4 539.671 31.4C537.583 31.4 535.837 32.066 534.433 33.398C533.029 34.694 532.327 36.566 532.327 39.014V39.554C532.327 41.966 533.029 43.838 534.433 45.17C535.837 46.502 537.583 47.168 539.671 47.168ZM573.459 53.756C570.795 53.756 568.437 53.198 566.385 52.082C564.369 50.93 562.785 49.328 561.633 47.276C560.517 45.188 559.959 42.74 559.959 39.932V39.284C559.959 36.476 560.517 34.046 561.633 31.994C562.749 29.906 564.315 28.304 566.331 27.188C568.347 26.036 570.687 25.46 573.351 25.46C575.979 25.46 578.265 26.054 580.209 27.242C582.153 28.394 583.665 30.014 584.745 32.102C585.825 34.154 586.365 36.548 586.365 39.284V41.606H566.871C566.943 43.442 567.627 44.936 568.923 46.088C570.219 47.24 571.803 47.816 573.675 47.816C575.583 47.816 576.987 47.402 577.887 46.574C578.787 45.746 579.471 44.828 579.939 43.82L585.501 46.736C584.997 47.672 584.259 48.698 583.287 49.814C582.351 50.894 581.091 51.83 579.507 52.622C577.923 53.378 575.907 53.756 573.459 53.756ZM566.925 36.53H579.453C579.309 34.982 578.679 33.74 577.563 32.804C576.483 31.868 575.061 31.4 573.297 31.4C571.461 31.4 570.003 31.868 568.923 32.804C567.843 33.74 567.177 34.982 566.925 36.53ZM603.545 53.756C600.053 53.756 597.191 53 594.959 51.488C592.727 49.976 591.377 47.816 590.909 45.008L597.173 43.388C597.425 44.648 597.839 45.638 598.415 46.358C599.027 47.078 599.765 47.6 600.629 47.924C601.529 48.212 602.501 48.356 603.545 48.356C605.129 48.356 606.299 48.086 607.055 47.546C607.811 46.97 608.189 46.268 608.189 45.44C608.189 44.612 607.829 43.982 607.109 43.55C606.389 43.082 605.237 42.704 603.653 42.416L602.141 42.146C600.269 41.786 598.559 41.3 597.011 40.688C595.463 40.04 594.221 39.158 593.285 38.042C592.349 36.926 591.881 35.486 591.881 33.722C591.881 31.058 592.853 29.024 594.797 27.62C596.741 26.18 599.297 25.46 602.465 25.46C605.453 25.46 607.937 26.126 609.917 27.458C611.897 28.79 613.193 30.536 613.805 32.696L607.487 34.64C607.199 33.272 606.605 32.3 605.705 31.724C604.841 31.148 603.761 30.86 602.465 30.86C601.169 30.86 600.179 31.094 599.495 31.562C598.811 31.994 598.469 32.606 598.469 33.398C598.469 34.262 598.829 34.91 599.549 35.342C600.269 35.738 601.241 36.044 602.465 36.26L603.977 36.53C605.993 36.89 607.811 37.376 609.431 37.988C611.087 38.564 612.383 39.41 613.319 40.526C614.291 41.606 614.777 43.082 614.777 44.954C614.777 47.762 613.751 49.94 611.699 51.488C609.683 53 606.965 53.756 603.545 53.756Z" fill="#10069F"/>
<path fill-rule="evenodd" clip-rule="evenodd" d="M304.619 14.6399C304.619 14.6358 304.617 14.632 304.615 14.6292L304.59 14.6044C304.587 14.6016 304.583 14.6 304.58 14.6H276.087C276.083 14.6 276.079 14.6016 276.077 14.6044L276.052 14.6292C276.049 14.632 276.048 14.6358 276.048 14.6399V52.9601C276.048 52.9641 276.049 52.968 276.052 52.9708L276.077 52.9956C276.079 52.9984 276.083 53 276.087 53H304.58C304.583 53 304.587 52.9984 304.59 52.9956L304.615 52.9708C304.617 52.968 304.619 52.9641 304.619 52.9601V43.4399C304.619 43.4359 304.617 43.432 304.615 43.4292L304.59 43.4044C304.587 43.4016 304.583 43.4 304.58 43.4H285.611C285.607 43.4 285.603 43.3984 285.6 43.3956L285.576 43.3708C285.573 43.368 285.571 43.3641 285.571 43.3601V33.8912C285.571 33.8851 285.575 33.8796 285.581 33.8773L285.619 33.8612C285.625 33.8589 285.631 33.8602 285.635 33.8645L290.343 38.5956C290.346 38.5984 290.349 38.6 290.353 38.6H304.58C304.583 38.6 304.587 38.5984 304.59 38.5956L304.615 38.5708C304.617 38.568 304.619 38.5641 304.619 38.5601V14.6399ZM295.056 29C295.06 29 295.064 28.9984 295.066 28.9956L295.091 28.9708C295.094 28.968 295.095 28.9641 295.095 28.9601V24.2399C295.095 24.2359 295.094 24.232 295.091 24.2292L295.066 24.2044C295.064 24.2016 295.06 24.2 295.056 24.2H285.611C285.607 24.2 285.603 24.2016 285.6 24.2044L285.576 24.2292C285.573 24.232 285.571 24.2359 285.571 24.2399V28.9601C285.571 28.9641 285.573 28.968 285.576 28.9708L285.6 28.9956C285.603 28.9984 285.607 29 285.611 29H295.056Z" fill="url(#paint0_linear_203_21)"/>
<path d="M242.719 52.9708C242.716 52.9679 242.714 52.9641 242.714 52.9601V14.6399C242.714 14.6358 242.716 14.632 242.719 14.6292L242.743 14.6044C242.746 14.6016 242.75 14.6 242.754 14.6H252.199C252.203 14.6 252.206 14.6016 252.209 14.6044L252.234 14.6292C252.237 14.632 252.238 14.6358 252.238 14.6399V19.3088C252.238 19.3149 252.242 19.3204 252.247 19.3227L252.286 19.3388C252.291 19.3411 252.298 19.3398 252.302 19.3355L257.009 14.6044C257.012 14.6016 257.016 14.6 257.02 14.6H271.246C271.25 14.6 271.254 14.6016 271.257 14.6044L271.281 14.6292C271.284 14.632 271.286 14.6358 271.286 14.6399V52.9601C271.286 52.9641 271.284 52.9679 271.281 52.9708L271.257 52.9955C271.254 52.9984 271.25 53 271.246 53H261.801C261.797 53 261.794 52.9984 261.791 52.9955L261.766 52.9708C261.763 52.9679 261.762 52.9641 261.762 52.9601V24.2398C261.762 24.2358 261.76 24.232 261.758 24.2291L261.733 24.2044C261.73 24.2016 261.726 24.2 261.722 24.2H252.278C252.274 24.2 252.27 24.2016 252.267 24.2044L252.243 24.2291C252.24 24.232 252.238 24.2358 252.238 24.2398V52.9601C252.238 52.9641 252.237 52.9679 252.234 52.9708L252.209 52.9955C252.206 52.9984 252.203 53 252.199 53H242.754C242.75 53 242.746 52.9984 242.743 52.9955L242.719 52.9708Z" fill="url(#paint1_linear_203_21)"/>
<path fill-rule="evenodd" clip-rule="evenodd" d="M209.381 52.9601C209.381 52.9641 209.383 52.968 209.385 52.9708L209.41 52.9956C209.413 52.9984 209.417 53 209.42 53H237.913C237.917 53 237.921 52.9984 237.923 52.9956L237.948 52.9708C237.951 52.968 237.952 52.9641 237.952 52.9601V14.6399C237.952 14.6358 237.951 14.632 237.948 14.6292L237.923 14.6044C237.921 14.6016 237.917 14.6 237.913 14.6H209.42C209.417 14.6 209.413 14.6016 209.41 14.6044L209.385 14.6292C209.383 14.632 209.381 14.6358 209.381 14.6399V24.1601C209.381 24.1641 209.383 24.168 209.385 24.1708L209.41 24.1956C209.413 24.1984 209.417 24.2 209.42 24.2H228.389C228.393 24.2 228.397 24.2016 228.4 24.2044L228.424 24.2292C228.427 24.232 228.429 24.2358 228.429 24.2398V33.7088C228.429 33.7149 228.425 33.7204 228.419 33.7227L228.381 33.7388C228.375 33.7411 228.369 33.7398 228.365 33.7355L223.657 29.0044C223.654 29.0016 223.651 29 223.647 29H209.42C209.417 29 209.413 29.0016 209.41 29.0044L209.385 29.0292C209.383 29.032 209.381 29.0358 209.381 29.0398V52.9601ZM218.944 38.6C218.94 38.6 218.937 38.6016 218.934 38.6044L218.909 38.6292C218.906 38.632 218.905 38.6358 218.905 38.6398V43.3601C218.905 43.3641 218.906 43.368 218.909 43.3708L218.934 43.3956C218.937 43.3984 218.94 43.4 218.944 43.4H228.389C228.393 43.4 228.397 43.3984 228.4 43.3956L228.424 43.3708C228.427 43.368 228.429 43.3641 228.429 43.3601V38.6398C228.429 38.6358 228.427 38.632 228.424 38.6292L228.4 38.6044C228.397 38.6016 228.393 38.6 228.389 38.6H218.944Z" fill="url(#paint2_linear_203_21)"/>
<path fill-rule="evenodd" clip-rule="evenodd" d="M176.087 5C176.083 5 176.079 5.00159 176.077 5.00443L176.052 5.02917C176.049 5.03201 176.048 5.03585 176.048 5.03986V52.9601C176.048 52.9642 176.049 52.968 176.052 52.9708L176.077 52.9956C176.079 52.9984 176.083 53 176.087 53H204.58C204.583 53 204.587 52.9984 204.59 52.9956L204.615 52.9708C204.617 52.968 204.619 52.9642 204.619 52.9601V14.6399C204.619 14.6359 204.617 14.632 204.615 14.6292L204.59 14.6044C204.587 14.6016 204.583 14.6 204.58 14.6H190.353C190.349 14.6 190.346 14.6016 190.343 14.6044L185.635 19.3355C185.631 19.3398 185.625 19.3411 185.619 19.3388L185.581 19.3227C185.575 19.3204 185.571 19.3149 185.571 19.3088V5.03986C185.571 5.03585 185.57 5.03201 185.567 5.02917L185.542 5.00443C185.54 5.00159 185.536 5 185.532 5H176.087ZM195.056 43.4C195.06 43.4 195.064 43.3984 195.066 43.3956L195.091 43.3708C195.094 43.368 195.095 43.3641 195.095 43.3601V24.2399C195.095 24.2358 195.094 24.232 195.091 24.2292L195.066 24.2044C195.064 24.2016 195.06 24.2 195.056 24.2H185.611C185.607 24.2 185.603 24.2016 185.6 24.2044L185.576 24.2292C185.573 24.232 185.571 24.2358 185.571 24.2399V43.3601C185.571 43.3641 185.573 43.368 185.576 43.3708L185.6 43.3956C185.603 43.3984 185.607 43.4 185.611 43.4H195.056Z" fill="url(#paint3_linear_203_21)"/>
<path d="M142.714 52.9849L142.714 24.2L133.224 24.2L133.19 24.2336V52.9664L133.157 53H123.7L123.667 52.9664V14.6336L123.7 14.6H133.157L133.19 14.6336V19.3189L137.966 14.6H152.223C152.231 14.6 152.238 14.6068 152.238 14.6151L152.238 19.3427L157.014 14.6H171.252L171.286 14.6336V52.9664L171.252 53H161.795L161.762 52.9664V24.2336L161.729 24.2L152.238 24.2L152.238 52.9849C152.238 52.9932 152.232 53 152.223 53H142.728C142.719 53 142.714 52.9932 142.714 52.9849Z" fill="url(#paint4_linear_203_21)"/>
<path d="M337.952 14.6151L337.952 43.3999L347.443 43.4L347.476 43.3664V14.6336L347.51 14.6H356.967L357 14.6336V52.9663L356.967 52.9999H347.51L347.476 52.9663V48.2811L342.7 52.9999H328.444C328.435 52.9999 328.429 52.9932 328.429 52.9848V48.2573L323.653 52.9999H309.414L309.381 52.9663V14.6336L309.414 14.6H318.871L318.905 14.6336V43.3664L318.938 43.4L328.429 43.4V14.6151C328.429 14.6067 328.435 14.6 328.443 14.6H337.939C337.947 14.6 337.952 14.6067 337.952 14.6151Z" fill="url(#paint5_linear_203_21)"/>
<path d="M118.9 14.6292C118.903 14.632 118.905 14.6358 118.905 14.6399V52.9601C118.905 52.9641 118.903 52.9679 118.9 52.9708L118.876 52.9955C118.873 52.9984 118.869 53 118.865 53H109.42C109.417 53 109.413 52.9984 109.41 52.9955L109.385 52.9708C109.383 52.9679 109.381 52.9641 109.381 52.9601V48.2912C109.381 48.2851 109.377 48.2796 109.372 48.2772L109.333 48.2612C109.328 48.2589 109.321 48.2601 109.317 48.2645L104.61 52.9955C104.607 52.9984 104.603 53 104.599 53H90.3729C90.3689 53 90.3651 52.9984 90.3623 52.9955L90.3377 52.9708C90.3349 52.9679 90.3333 52.9641 90.3333 52.9601V14.6399C90.3333 14.6358 90.3349 14.632 90.3377 14.6292L90.3623 14.6044C90.3651 14.6016 90.3689 14.6 90.3729 14.6H99.8176C99.8216 14.6 99.8254 14.6016 99.8282 14.6044L99.8528 14.6292C99.8556 14.632 99.8572 14.6358 99.8572 14.6399V43.3601C99.8572 43.3641 99.8587 43.368 99.8615 43.3708L99.8861 43.3955C99.8889 43.3984 99.8927 43.4 99.8967 43.4H109.341C109.345 43.4 109.349 43.3984 109.352 43.3955L109.377 43.3708C109.379 43.368 109.381 43.3641 109.381 43.3601V14.6399C109.381 14.6358 109.383 14.632 109.385 14.6292L109.41 14.6044C109.413 14.6016 109.417 14.6 109.42 14.6H118.865C118.869 14.6 118.873 14.6016 118.876 14.6044L118.9 14.6292Z" fill="url(#paint6_linear_203_21)"/>
<path d="M57.0044 52.9708C57.0016 52.968 57 52.9641 57 52.9601V5.03986C57 5.03585 57.0016 5.03201 57.0044 5.02917L57.0289 5.00443C57.0318 5.00159 57.0356 5 57.0395 5H66.4843C66.4882 5 66.4921 5.00159 66.4949 5.00443L66.5194 5.02917C66.5222 5.03201 66.5238 5.03585 66.5238 5.03986V19.3088C66.5238 19.3149 66.5275 19.3204 66.5331 19.3227L66.5715 19.3388C66.5771 19.3411 66.5835 19.3398 66.5878 19.3355L71.2951 14.6044C71.2979 14.6016 71.3017 14.6 71.3057 14.6H85.5319C85.5359 14.6 85.5397 14.6016 85.5425 14.6044L85.567 14.6292C85.5698 14.632 85.5714 14.6358 85.5714 14.6399V52.9601C85.5714 52.9641 85.5698 52.968 85.567 52.9708L85.5425 52.9955C85.5397 52.9984 85.5359 53 85.5319 53H76.0872C76.0832 53 76.0794 52.9984 76.0766 52.9955L76.052 52.9708C76.0492 52.968 76.0476 52.9641 76.0476 52.9601V24.2398C76.0476 24.2358 76.046 24.232 76.0432 24.2292L76.0187 24.2044C76.0159 24.2016 76.012 24.2 76.0081 24.2H66.5634C66.5594 24.2 66.5556 24.2016 66.5527 24.2044L66.5282 24.2292C66.5254 24.232 66.5238 24.2358 66.5238 24.2398V52.9601C66.5238 52.9641 66.5222 52.968 66.5194 52.9708L66.4949 52.9955C66.4921 52.9984 66.4882 53 66.4843 53H57.0395C57.0356 53 57.0318 52.9984 57.0289 52.9955L57.0044 52.9708Z" fill="url(#paint7_linear_203_21)"/>
<mask id="mask0_203_21" style="mask-type:alpha" maskUnits="userSpaceOnUse" x="0" y="4" width="52" height="52">
<rect y="4" width="52" height="52" fill="#D9D9D9"/>
</mask>
<g mask="url(#mask0_203_21)">
<path d="M23.8333 51.0709V31.2459L6.5 21.225V38.6125C6.5 39.407 6.68958 40.1292 7.06875 40.7792C7.44792 41.4292 7.98056 41.9528 8.66667 42.35L23.8333 51.0709ZM28.1667 51.0709L43.3333 42.35C44.0194 41.9528 44.5521 41.4292 44.9313 40.7792C45.3104 40.1292 45.5 39.407 45.5 38.6125V21.225L28.1667 31.2459V51.0709ZM36.7792 21.2792L43.1708 17.5417L28.1667 8.92921C27.4806 8.53199 26.7583 8.33337 26 8.33337C25.2417 8.33337 24.5194 8.53199 23.8333 8.92921L19.5542 11.3667L36.7792 21.2792ZM26 27.5084L32.4458 23.825L15.275 13.8584L8.775 17.5959L26 27.5084Z" fill="#833921"/>
</g>
<defs>
<linearGradient id="paint0_linear_203_21" x1="84.75" y1="41.288" x2="326.25" y2="40.5439" gradientUnits="userSpaceOnUse">
<stop stop-color="#833921"/>
<stop offset="1" stop-color="#10069F"/>
</linearGradient>
<linearGradient id="paint1_linear_203_21" x1="84.75" y1="41.288" x2="326.25" y2="40.5439" gradientUnits="userSpaceOnUse">
<stop stop-color="#833921"/>
<stop offset="1" stop-color="#10069F"/>
</linearGradient>
<linearGradient id="paint2_linear_203_21" x1="84.75" y1="41.288" x2="326.25" y2="40.5439" gradientUnits="userSpaceOnUse">
<stop stop-color="#833921"/>
<stop offset="1" stop-color="#10069F"/>
</linearGradient>
<linearGradient id="paint3_linear_203_21" x1="84.75" y1="41.288" x2="326.25" y2="40.5439" gradientUnits="userSpaceOnUse">
<stop stop-color="#833921"/>
<stop offset="1" stop-color="#10069F"/>
</linearGradient>
<linearGradient id="paint4_linear_203_21" x1="84.75" y1="41.288" x2="326.25" y2="40.5439" gradientUnits="userSpaceOnUse">
<stop stop-color="#833921"/>
<stop offset="1" stop-color="#10069F"/>
</linearGradient>
<linearGradient id="paint5_linear_203_21" x1="84.75" y1="41.288" x2="326.25" y2="40.5439" gradientUnits="userSpaceOnUse">
<stop stop-color="#833921"/>
<stop offset="1" stop-color="#10069F"/>
</linearGradient>
<linearGradient id="paint6_linear_203_21" x1="84.75" y1="41.288" x2="326.25" y2="40.5439" gradientUnits="userSpaceOnUse">
<stop stop-color="#833921"/>
<stop offset="1" stop-color="#10069F"/>
</linearGradient>
<linearGradient id="paint7_linear_203_21" x1="84.75" y1="41.288" x2="326.25" y2="40.5439" gradientUnits="userSpaceOnUse">
<stop stop-color="#833921"/>
<stop offset="1" stop-color="#10069F"/>
</linearGradient>
</defs>
</svg>
